<svg id="visual" viewBox="0 0 900 600" width="900" height="600" xmlns="http://www.w3.org/2000/svg" xmlns:xlink="http://www.w3.org/1999/xlink" version="1.1"><path d="M0 85L13.7 85C27.3 85 54.7 85 82 80C109.3 75 136.7 65 163.8 59C191 53 218 51 245.2 50C272.3 49 299.7 49 327 51C354.3 53 381.7 57 409 69C436.3 81 463.7 101 491 101C518.3 101 545.7 81 573 81C600.3 81 627.7 101 654.8 99C682 97 709 73 736.2 70C763.3 67 790.7 85 818 98C845.3 111 872.7 119 886.3 123L900 127L900 0L886.3 0C872.7 0 845.3 0 818 0C790.7 0 763.3 0 736.2 0C709 0 682 0 654.8 0C627.7 0 600.3 0 573 0C545.7 0 518.3 0 491 0C463.7 0 436.3 0 409 0C381.7 0 354.3 0 327 0C299.7 0 272.3 0 245.2 0C218 0 191 0 163.8 0C136.7 0 109.3 0 82 0C54.7 0 27.3 0 13.7 0L0 0Z" fill="#c1db8d"></path><path d="M0 211L13.7 225C27.3 239 54.7 267 82 277C109.3 287 136.7 279 163.8 280C191 281 218 291 245.2 298C272.3 305 299.7 309 327 308C354.3 307 381.7 301 409 286C436.3 271 463.7 247 491 231C518.3 215 545.7 207 573 217C600.3 227 627.7 255 654.8 250C682 245 709 207 736.2 213C763.3 219 790.7 269 818 277C845.3 285 872.7 251 886.3 234L900 217L900 125L886.3 121C872.7 117 845.3 109 818 96C790.7 83 763.3 65 736.2 68C709 71 682 95 654.8 97C627.7 99 600.3 79 573 79C545.7 79 518.3 99 491 99C463.7 99 436.3 79 409 67C381.7 55 354.3 51 327 49C299.7 47 272.3 47 245.2 48C218 49 191 51 163.8 57C136.7 63 109.3 73 82 78C54.7 83 27.3 83 13.7 83L0 83Z" fill="#b3d373"></path><path d="M0 421L13.7 435C27.3 449 54.7 477 82 478C109.3 479 136.7 453 163.8 438C191 423 218 419 245.2 417C272.3 415 299.7 415 327 415C354.3 415 381.7 415 409 410C436.3 405 463.7 395 491 387C518.3 379 545.7 373 573 381C600.3 389 627.7 411 654.8 425C682 439 709 445 736.2 444C763.3 443 790.7 435 818 428C845.3 421 872.7 415 886.3 412L900 409L900 215L886.3 232C872.7 249 845.3 283 818 275C790.7 267 763.3 217 736.2 211C709 205 682 243 654.8 248C627.7 253 600.3 225 573 215C545.7 205 518.3 213 491 229C463.7 245 436.3 269 409 284C381.7 299 354.3 305 327 306C299.7 307 272.3 303 245.2 296C218 289 191 279 163.8 278C136.7 277 109.3 285 82 275C54.7 265 27.3 237 13.7 223L0 209Z" fill="#a4cb59"></path><path d="M0 487L13.7 496C27.3 505 54.7 523 82 520C109.3 517 136.7 493 163.8 480C191 467 218 465 245.2 469C272.3 473 299.7 483 327 492C354.3 501 381.7 509 409 504C436.3 499 463.7 481 491 471C518.3 461 545.7 459 573 469C600.3 479 627.7 501 654.8 510C682 519 709 515 736.2 506C763.3 497 790.7 483 818 477C845.3 471 872.7 473 886.3 474L900 475L900 407L886.3 410C872.7 413 845.3 419 818 426C790.7 433 763.3 441 736.2 442C709 443 682 437 654.8 423C627.7 409 600.3 387 573 379C545.7 371 518.3 377 491 385C463.7 393 436.3 403 409 408C381.7 413 354.3 413 327 413C299.7 413 272.3 413 245.2 415C218 417 191 421 163.8 436C136.7 451 109.3 477 82 476C54.7 475 27.3 447 13.7 433L0 419Z" fill="#8eb14c"></path><path d="M0 601L13.7 601C27.3 601 54.7 601 82 601C109.3 601 136.7 601 163.8 601C191 601 218 601 245.2 601C272.3 601 299.7 601 327 601C354.3 601 381.7 601 409 601C436.3 601 463.7 601 491 601C518.3 601 545.7 601 573 601C600.3 601 627.7 601 654.8 601C682 601 709 601 736.2 601C763.3 601 790.7 601 818 601C845.3 601 872.7 601 886.3 601L900 601L900 473L886.3 472C872.7 471 845.3 469 818 475C790.7 481 763.3 495 736.2 504C709 513 682 517 654.8 508C627.7 499 600.3 477 573 467C545.7 457 518.3 459 491 469C463.7 479 436.3 497 409 502C381.7 507 354.3 499 327 490C299.7 481 272.3 471 245.2 467C218 463 191 465 163.8 478C136.7 491 109.3 515 82 518C54.7 521 27.3 503 13.7 494L0 485Z" fill="#79973f"></path></svg>